<?xml version="1.0" encoding="UTF-8"?><svg id="Layer_2" xmlns="http://www.w3.org/2000/svg" viewBox="0 0 500.52 500"><defs><style>.cls-1{fill:#fff;}</style></defs><g id="Layer_1-2"><rect class="cls-1" width="500.52" height="500"/><g><path d="m217.25,452.09c-6.3-9.45-28.35-94.05-54.45-207-20.7-91.35-33.3-139.5-43.2-167.4-8.1-24.3-8.55-31.05-1.8-36,5.85-4.5,23.4-4.5,31.05-.9,17.55,9.45,27.45,41.4,64.8,208.35,18.9,84.6,21.15,91.8,27,91.8,4.5,0,5.4-3.15,17.55-49.05,17.55-64.8,50.85-173.25,57.6-185.4,4.05-8.1,9.9-12.15,18.9-12.15,16.2,0,25.65,8.1,25.2,20.7-.45,3.6-8.55,33.3-18.45,65.7-19.8,63.45-31.05,104.85-53.55,198.45-15.3,62.55-19.35,73.8-27.9,78.75-6.3,3.15-19.35,4.95-27.45,3.15-7.65-1.8-12.15-4.05-15.3-9Z"/><path d="m329.29,405.74c5.85-11.7,13.95-16.65,27.45-16.65,12.6,0,21.15,4.05,26.55,12.15,4.95,9,4.95,18.45-.9,31.05-7.65,16.65-13.5,20.7-27.9,20.7-8.55,0-14.4-1.35-18.45-3.6-13.5-8.1-16.2-24.75-6.75-43.65Z"/></g></g></svg>